<?xml version="1.0" encoding="UTF-8" standalone="no"?><svg xmlns="http://www.w3.org/2000/svg" xmlns:xlink="http://www.w3.org/1999/xlink" contentScriptType="application/ecmascript" contentStyleType="text/css" height="301px" preserveAspectRatio="none" style="width:788px;height:301px;" version="1.1" viewBox="0 0 788 301" width="788px" zoomAndPan="magnify"><defs><filter height="300%" id="f1opzqupvt38kh" width="300%" x="-1" y="-1"><feGaussianBlur result="blurOut" stdDeviation="2.0"/><feColorMatrix in="blurOut" result="blurOut2" type="matrix" values="0 0 0 0 0 0 0 0 0 0 0 0 0 0 0 0 0 0 .4 0"/><feOffset dx="4.0" dy="4.0" in="blurOut2" result="blurOut3"/><feBlend in="SourceGraphic" in2="blurOut3" mode="normal"/></filter></defs><g><!--class BarkBehaviour--><rect fill="#FEFECE" filter="url(#f1opzqupvt38kh)" height="48" id="BarkBehaviour" style="stroke: #A80036; stroke-width: 1.5;" width="122" x="374.5" y="133"/><ellipse cx="389.5" cy="149" fill="#B4A7E5" rx="11" ry="11" style="stroke: #A80036; stroke-width: 1.0;"/><path d="M385.4219,144.7656 L385.4219,142.6094 L392.8125,142.6094 L392.8125,144.7656 L390.3438,144.7656 L390.3438,152.8438 L392.8125,152.8438 L392.8125,155 L385.4219,155 L385.4219,152.8438 L387.8906,152.8438 L387.8906,144.7656 L385.4219,144.7656 Z "/><text fill="#000000" font-family="sans-serif" font-size="12" font-style="italic" lengthAdjust="spacingAndGlyphs" textLength="90" x="403.5" y="153.1543">BarkBehaviour</text><line style="stroke: #A80036; stroke-width: 1.5;" x1="375.5" x2="495.5" y1="165" y2="165"/><line style="stroke: #A80036; stroke-width: 1.5;" x1="375.5" x2="495.5" y1="173" y2="173"/><!--class Bork--><rect fill="#FEFECE" filter="url(#f1opzqupvt38kh)" height="48" id="Bork" style="stroke: #A80036; stroke-width: 1.5;" width="60" x="332.5" y="242"/><ellipse cx="347.5" cy="258" fill="#ADD1B2" rx="11" ry="11" style="stroke: #A80036; stroke-width: 1.0;"/><path d="M350.4688,263.6406 Q349.8906,263.9375 349.25,264.0781 Q348.6094,264.2344 347.9063,264.2344 Q345.4063,264.2344 344.0781,262.5938 Q342.7656,260.9375 342.7656,257.8125 Q342.7656,254.6875 344.0781,253.0313 Q345.4063,251.375 347.9063,251.375 Q348.6094,251.375 349.25,251.5313 Q349.9063,251.6875 350.4688,251.9844 L350.4688,254.7031 Q349.8438,254.125 349.25,253.8594 Q348.6563,253.5781 348.0313,253.5781 Q346.6875,253.5781 346,254.6563 Q345.3125,255.7188 345.3125,257.8125 Q345.3125,259.9063 346,260.9844 Q346.6875,262.0469 348.0313,262.0469 Q348.6563,262.0469 349.25,261.7813 Q349.8438,261.5 350.4688,260.9219 L350.4688,263.6406 Z "/><text fill="#000000" font-family="sans-serif" font-size="12" lengthAdjust="spacingAndGlyphs" textLength="28" x="361.5" y="262.1543">Bork</text><line style="stroke: #A80036; stroke-width: 1.5;" x1="333.5" x2="391.5" y1="274" y2="274"/><line style="stroke: #A80036; stroke-width: 1.5;" x1="333.5" x2="391.5" y1="282" y2="282"/><!--class Corgi--><rect fill="#FEFECE" filter="url(#f1opzqupvt38kh)" height="48" id="Corgi" style="stroke: #A80036; stroke-width: 1.5;" width="64" x="531.5" y="133"/><ellipse cx="546.5" cy="149" fill="#ADD1B2" rx="11" ry="11" style="stroke: #A80036; stroke-width: 1.0;"/><path d="M549.4688,154.6406 Q548.8906,154.9375 548.25,155.0781 Q547.6094,155.2344 546.9063,155.2344 Q544.4063,155.2344 543.0781,153.5938 Q541.7656,151.9375 541.7656,148.8125 Q541.7656,145.6875 543.0781,144.0313 Q544.4063,142.375 546.9063,142.375 Q547.6094,142.375 548.25,142.5313 Q548.9063,142.6875 549.4688,142.9844 L549.4688,145.7031 Q548.8438,145.125 548.25,144.8594 Q547.6563,144.5781 547.0313,144.5781 Q545.6875,144.5781 545,145.6563 Q544.3125,146.7188 544.3125,148.8125 Q544.3125,150.9063 545,151.9844 Q545.6875,153.0469 547.0313,153.0469 Q547.6563,153.0469 548.25,152.7813 Q548.8438,152.5 549.4688,151.9219 L549.4688,154.6406 Z "/><text fill="#000000" font-family="sans-serif" font-size="12" lengthAdjust="spacingAndGlyphs" textLength="32" x="560.5" y="153.1543">Corgi</text><line style="stroke: #A80036; stroke-width: 1.5;" x1="532.5" x2="594.5" y1="165" y2="165"/><line style="stroke: #A80036; stroke-width: 1.5;" x1="532.5" x2="594.5" y1="173" y2="173"/><!--class Dog--><rect fill="#FEFECE" filter="url(#f1opzqupvt38kh)" height="48" id="Dog" style="stroke: #A80036; stroke-width: 1.5;" width="57" x="535" y="8"/><ellipse cx="550" cy="24" fill="#A9DCDF" rx="11" ry="11" style="stroke: #A80036; stroke-width: 1.0;"/><path d="M550.1094,19.3438 L548.9531,24.4219 L551.2813,24.4219 L550.1094,19.3438 Z M548.625,17.1094 L551.6094,17.1094 L554.9688,29.5 L552.5156,29.5 L551.75,26.4375 L548.4688,26.4375 L547.7188,29.5 L545.2813,29.5 L548.625,17.1094 Z "/><text fill="#000000" font-family="sans-serif" font-size="12" font-style="italic" lengthAdjust="spacingAndGlyphs" textLength="25" x="564" y="28.1543">Dog</text><line style="stroke: #A80036; stroke-width: 1.5;" x1="536" x2="591" y1="40" y2="40"/><line style="stroke: #A80036; stroke-width: 1.5;" x1="536" x2="591" y1="48" y2="48"/><!--class HerdCattle--><rect fill="#FEFECE" filter="url(#f1opzqupvt38kh)" height="48" id="HerdCattle" style="stroke: #A80036; stroke-width: 1.5;" width="99" x="6" y="242"/><ellipse cx="21" cy="258" fill="#ADD1B2" rx="11" ry="11" style="stroke: #A80036; stroke-width: 1.0;"/><path d="M23.9688,263.6406 Q23.3906,263.9375 22.75,264.0781 Q22.1094,264.2344 21.4063,264.2344 Q18.9063,264.2344 17.5781,262.5938 Q16.2656,260.9375 16.2656,257.8125 Q16.2656,254.6875 17.5781,253.0313 Q18.9063,251.375 21.4063,251.375 Q22.1094,251.375 22.75,251.5313 Q23.4063,251.6875 23.9688,251.9844 L23.9688,254.7031 Q23.3438,254.125 22.75,253.8594 Q22.1563,253.5781 21.5313,253.5781 Q20.1875,253.5781 19.5,254.6563 Q18.8125,255.7188 18.8125,257.8125 Q18.8125,259.9063 19.5,260.9844 Q20.1875,262.0469 21.5313,262.0469 Q22.1563,262.0469 22.75,261.7813 Q23.3438,261.5 23.9688,260.9219 L23.9688,263.6406 Z "/><text fill="#000000" font-family="sans-serif" font-size="12" lengthAdjust="spacingAndGlyphs" textLength="67" x="35" y="262.1543">HerdCattle</text><line style="stroke: #A80036; stroke-width: 1.5;" x1="7" x2="104" y1="274" y2="274"/><line style="stroke: #A80036; stroke-width: 1.5;" x1="7" x2="104" y1="282" y2="282"/><!--class Hunt--><rect fill="#FEFECE" filter="url(#f1opzqupvt38kh)" height="48" id="Hunt" style="stroke: #A80036; stroke-width: 1.5;" width="62" x="140.5" y="242"/><ellipse cx="155.5" cy="258" fill="#ADD1B2" rx="11" ry="11" style="stroke: #A80036; stroke-width: 1.0;"/><path d="M158.4688,263.6406 Q157.8906,263.9375 157.25,264.0781 Q156.6094,264.2344 155.9063,264.2344 Q153.4063,264.2344 152.0781,262.5938 Q150.7656,260.9375 150.7656,257.8125 Q150.7656,254.6875 152.0781,253.0313 Q153.4063,251.375 155.9063,251.375 Q156.6094,251.375 157.25,251.5313 Q157.9063,251.6875 158.4688,251.9844 L158.4688,254.7031 Q157.8438,254.125 157.25,253.8594 Q156.6563,253.5781 156.0313,253.5781 Q154.6875,253.5781 154,254.6563 Q153.3125,255.7188 153.3125,257.8125 Q153.3125,259.9063 154,260.9844 Q154.6875,262.0469 156.0313,262.0469 Q156.6563,262.0469 157.25,261.7813 Q157.8438,261.5 158.4688,260.9219 L158.4688,263.6406 Z "/><text fill="#000000" font-family="sans-serif" font-size="12" lengthAdjust="spacingAndGlyphs" textLength="30" x="169.5" y="262.1543">Hunt</text><line style="stroke: #A80036; stroke-width: 1.5;" x1="141.5" x2="201.5" y1="274" y2="274"/><line style="stroke: #A80036; stroke-width: 1.5;" x1="141.5" x2="201.5" y1="282" y2="282"/><!--class InstinctBehaviour--><rect fill="#FEFECE" filter="url(#f1opzqupvt38kh)" height="48" id="InstinctBehaviour" style="stroke: #A80036; stroke-width: 1.5;" width="140" x="149.5" y="133"/><ellipse cx="164.5" cy="149" fill="#B4A7E5" rx="11" ry="11" style="stroke: #A80036; stroke-width: 1.0;"/><path d="M160.4219,144.7656 L160.4219,142.6094 L167.8125,142.6094 L167.8125,144.7656 L165.3438,144.7656 L165.3438,152.8438 L167.8125,152.8438 L167.8125,155 L160.4219,155 L160.4219,152.8438 L162.8906,152.8438 L162.8906,144.7656 L160.4219,144.7656 Z "/><text fill="#000000" font-family="sans-serif" font-size="12" font-style="italic" lengthAdjust="spacingAndGlyphs" textLength="108" x="178.5" y="153.1543">InstinctBehaviour</text><line style="stroke: #A80036; stroke-width: 1.5;" x1="150.5" x2="288.5" y1="165" y2="165"/><line style="stroke: #A80036; stroke-width: 1.5;" x1="150.5" x2="288.5" y1="173" y2="173"/><!--class Lab--><rect fill="#FEFECE" filter="url(#f1opzqupvt38kh)" height="48" id="Lab" style="stroke: #A80036; stroke-width: 1.5;" width="54" x="630.5" y="133"/><ellipse cx="645.5" cy="149" fill="#ADD1B2" rx="11" ry="11" style="stroke: #A80036; stroke-width: 1.0;"/><path d="M648.4688,154.6406 Q647.8906,154.9375 647.25,155.0781 Q646.6094,155.2344 645.9063,155.2344 Q643.4063,155.2344 642.0781,153.5938 Q640.7656,151.9375 640.7656,148.8125 Q640.7656,145.6875 642.0781,144.0313 Q643.4063,142.375 645.9063,142.375 Q646.6094,142.375 647.25,142.5313 Q647.9063,142.6875 648.4688,142.9844 L648.4688,145.7031 Q647.8438,145.125 647.25,144.8594 Q646.6563,144.5781 646.0313,144.5781 Q644.6875,144.5781 644,145.6563 Q643.3125,146.7188 643.3125,148.8125 Q643.3125,150.9063 644,151.9844 Q644.6875,153.0469 646.0313,153.0469 Q646.6563,153.0469 647.25,152.7813 Q647.8438,152.5 648.4688,151.9219 L648.4688,154.6406 Z "/><text fill="#000000" font-family="sans-serif" font-size="12" lengthAdjust="spacingAndGlyphs" textLength="22" x="659.5" y="153.1543">Lab</text><line style="stroke: #A80036; stroke-width: 1.5;" x1="631.5" x2="683.5" y1="165" y2="165"/><line style="stroke: #A80036; stroke-width: 1.5;" x1="631.5" x2="683.5" y1="173" y2="173"/><!--class LoudBark--><rect fill="#FEFECE" filter="url(#f1opzqupvt38kh)" height="48" id="LoudBark" style="stroke: #A80036; stroke-width: 1.5;" width="90" x="427.5" y="242"/><ellipse cx="442.5" cy="258" fill="#ADD1B2" rx="11" ry="11" style="stroke: #A80036; stroke-width: 1.0;"/><path d="M445.4688,263.6406 Q444.8906,263.9375 444.25,264.0781 Q443.6094,264.2344 442.9063,264.2344 Q440.4063,264.2344 439.0781,262.5938 Q437.7656,260.9375 437.7656,257.8125 Q437.7656,254.6875 439.0781,253.0313 Q440.4063,251.375 442.9063,251.375 Q443.6094,251.375 444.25,251.5313 Q444.9063,251.6875 445.4688,251.9844 L445.4688,254.7031 Q444.8438,254.125 444.25,253.8594 Q443.6563,253.5781 443.0313,253.5781 Q441.6875,253.5781 441,254.6563 Q440.3125,255.7188 440.3125,257.8125 Q440.3125,259.9063 441,260.9844 Q441.6875,262.0469 443.0313,262.0469 Q443.6563,262.0469 444.25,261.7813 Q444.8438,261.5 445.4688,260.9219 L445.4688,263.6406 Z "/><text fill="#000000" font-family="sans-serif" font-size="12" lengthAdjust="spacingAndGlyphs" textLength="58" x="456.5" y="262.1543">LoudBark</text><line style="stroke: #A80036; stroke-width: 1.5;" x1="428.5" x2="516.5" y1="274" y2="274"/><line style="stroke: #A80036; stroke-width: 1.5;" x1="428.5" x2="516.5" y1="282" y2="282"/><!--class Main--><rect fill="#FEFECE" filter="url(#f1opzqupvt38kh)" height="48" id="Main" style="stroke: #A80036; stroke-width: 1.5;" width="61" x="627" y="8"/><ellipse cx="642" cy="24" fill="#ADD1B2" rx="11" ry="11" style="stroke: #A80036; stroke-width: 1.0;"/><path d="M644.9688,29.6406 Q644.3906,29.9375 643.75,30.0781 Q643.1094,30.2344 642.4063,30.2344 Q639.9063,30.2344 638.5781,28.5938 Q637.2656,26.9375 637.2656,23.8125 Q637.2656,20.6875 638.5781,19.0313 Q639.9063,17.375 642.4063,17.375 Q643.1094,17.375 643.75,17.5313 Q644.4063,17.6875 644.9688,17.9844 L644.9688,20.7031 Q644.3438,20.125 643.75,19.8594 Q643.1563,19.5781 642.5313,19.5781 Q641.1875,19.5781 640.5,20.6563 Q639.8125,21.7188 639.8125,23.8125 Q639.8125,25.9063 640.5,26.9844 Q641.1875,28.0469 642.5313,28.0469 Q643.1563,28.0469 643.75,27.7813 Q644.3438,27.5 644.9688,26.9219 L644.9688,29.6406 Z "/><text fill="#000000" font-family="sans-serif" font-size="12" lengthAdjust="spacingAndGlyphs" textLength="29" x="656" y="28.1543">Main</text><line style="stroke: #A80036; stroke-width: 1.5;" x1="628" x2="687" y1="40" y2="40"/><line style="stroke: #A80036; stroke-width: 1.5;" x1="628" x2="687" y1="48" y2="48"/><!--class NoBark--><rect fill="#FEFECE" filter="url(#f1opzqupvt38kh)" height="48" id="NoBark" style="stroke: #A80036; stroke-width: 1.5;" width="77" x="553" y="242"/><ellipse cx="568" cy="258" fill="#ADD1B2" rx="11" ry="11" style="stroke: #A80036; stroke-width: 1.0;"/><path d="M570.9688,263.6406 Q570.3906,263.9375 569.75,264.0781 Q569.1094,264.2344 568.4063,264.2344 Q565.9063,264.2344 564.5781,262.5938 Q563.2656,260.9375 563.2656,257.8125 Q563.2656,254.6875 564.5781,253.0313 Q565.9063,251.375 568.4063,251.375 Q569.1094,251.375 569.75,251.5313 Q570.4063,251.6875 570.9688,251.9844 L570.9688,254.7031 Q570.3438,254.125 569.75,253.8594 Q569.1563,253.5781 568.5313,253.5781 Q567.1875,253.5781 566.5,254.6563 Q565.8125,255.7188 565.8125,257.8125 Q565.8125,259.9063 566.5,260.9844 Q567.1875,262.0469 568.5313,262.0469 Q569.1563,262.0469 569.75,261.7813 Q570.3438,261.5 570.9688,260.9219 L570.9688,263.6406 Z "/><text fill="#000000" font-family="sans-serif" font-size="12" lengthAdjust="spacingAndGlyphs" textLength="45" x="582" y="262.1543">NoBark</text><line style="stroke: #A80036; stroke-width: 1.5;" x1="554" x2="629" y1="274" y2="274"/><line style="stroke: #A80036; stroke-width: 1.5;" x1="554" x2="629" y1="282" y2="282"/><!--class Wag--><rect fill="#FEFECE" filter="url(#f1opzqupvt38kh)" height="48" id="Wag" style="stroke: #A80036; stroke-width: 1.5;" width="59" x="238" y="242"/><ellipse cx="253" cy="258" fill="#ADD1B2" rx="11" ry="11" style="stroke: #A80036; stroke-width: 1.0;"/><path d="M255.9688,263.6406 Q255.3906,263.9375 254.75,264.0781 Q254.1094,264.2344 253.4063,264.2344 Q250.9063,264.2344 249.5781,262.5938 Q248.2656,260.9375 248.2656,257.8125 Q248.2656,254.6875 249.5781,253.0313 Q250.9063,251.375 253.4063,251.375 Q254.1094,251.375 254.75,251.5313 Q255.4063,251.6875 255.9688,251.9844 L255.9688,254.7031 Q255.3438,254.125 254.75,253.8594 Q254.1563,253.5781 253.5313,253.5781 Q252.1875,253.5781 251.5,254.6563 Q250.8125,255.7188 250.8125,257.8125 Q250.8125,259.9063 251.5,260.9844 Q252.1875,262.0469 253.5313,262.0469 Q254.1563,262.0469 254.75,261.7813 Q255.3438,261.5 255.9688,260.9219 L255.9688,263.6406 Z "/><text fill="#000000" font-family="sans-serif" font-size="12" lengthAdjust="spacingAndGlyphs" textLength="27" x="267" y="262.1543">Wag</text><line style="stroke: #A80036; stroke-width: 1.5;" x1="239" x2="296" y1="274" y2="274"/><line style="stroke: #A80036; stroke-width: 1.5;" x1="239" x2="296" y1="282" y2="282"/><!--class Wolf--><rect fill="#FEFECE" filter="url(#f1opzqupvt38kh)" height="48" id="Wolf" style="stroke: #A80036; stroke-width: 1.5;" width="58" x="719.5" y="133"/><ellipse cx="734.5" cy="149" fill="#ADD1B2" rx="11" ry="11" style="stroke: #A80036; stroke-width: 1.0;"/><path d="M737.4688,154.6406 Q736.8906,154.9375 736.25,155.0781 Q735.6094,155.2344 734.9063,155.2344 Q732.4063,155.2344 731.0781,153.5938 Q729.7656,151.9375 729.7656,148.8125 Q729.7656,145.6875 731.0781,144.0313 Q732.4063,142.375 734.9063,142.375 Q735.6094,142.375 736.25,142.5313 Q736.9063,142.6875 737.4688,142.9844 L737.4688,145.7031 Q736.8438,145.125 736.25,144.8594 Q735.6563,144.5781 735.0313,144.5781 Q733.6875,144.5781 733,145.6563 Q732.3125,146.7188 732.3125,148.8125 Q732.3125,150.9063 733,151.9844 Q733.6875,153.0469 735.0313,153.0469 Q735.6563,153.0469 736.25,152.7813 Q736.8438,152.5 737.4688,151.9219 L737.4688,154.6406 Z "/><text fill="#000000" font-family="sans-serif" font-size="12" lengthAdjust="spacingAndGlyphs" textLength="26" x="748.5" y="153.1543">Wolf</text><line style="stroke: #A80036; stroke-width: 1.5;" x1="720.5" x2="776.5" y1="165" y2="165"/><line style="stroke: #A80036; stroke-width: 1.5;" x1="720.5" x2="776.5" y1="173" y2="173"/><!--link BarkBehaviour to Bork--><path d="M408.11,198.15 C398.05,212.89 387.01,229.08 378.31,241.83 " fill="none" id="BarkBehaviour-Bork" style="stroke: #A80036; stroke-width: 1.0; stroke-dasharray: 7.0,7.0;"/><polygon fill="none" points="402.61,193.79,419.66,181.22,414.17,201.68,402.61,193.79" style="stroke: #A80036; stroke-width: 1.0;"/><!--link Dog to Corgi--><path d="M563.5,76.17 C563.5,95.29 563.5,117.02 563.5,132.97 " fill="none" id="Dog-Corgi" style="stroke: #A80036; stroke-width: 1.0;"/><polygon fill="none" points="556.5,76.14,563.5,56.14,570.5,76.14,556.5,76.14" style="stroke: #A80036; stroke-width: 1.0;"/><!--link Dog to BarkBehaviour--><path d="M522.45,46.25 C501.76,54.74 477.69,67.67 461.5,86 C449.83,99.21 443.22,118.14 439.59,132.99 " fill="none" id="Dog-BarkBehaviour" style="stroke: #A80036; stroke-width: 1.0;"/><polygon fill="#FFFFFF" points="534.8,41.52,527.7671,39.9266,523.5914,45.8056,530.6242,47.399,534.8,41.52" style="stroke: #A80036; stroke-width: 1.0;"/><text fill="#000000" font-family="sans-serif" font-size="13" lengthAdjust="spacingAndGlyphs" textLength="92" x="462.5" y="99.0669">barkBehaviour</text><!--link Dog to InstinctBehaviour--><path d="M521.81,38.14 C474.16,44.99 394.5,59.46 330.5,86 C301.46,98.04 271.47,117.44 250,132.77 " fill="none" id="Dog-InstinctBehaviour" style="stroke: #A80036; stroke-width: 1.0;"/><polygon fill="#FFFFFF" points="534.94,36.33,528.4507,33.1854,523.0521,37.9661,529.5414,41.1107,534.94,36.33" style="stroke: #A80036; stroke-width: 1.0;"/><text fill="#000000" font-family="sans-serif" font-size="13" lengthAdjust="spacingAndGlyphs" textLength="110" x="331.5" y="99.0669">instinctBehaviour</text><!--link InstinctBehaviour to HerdCattle--><path d="M167.12,192.17 C142.28,208.38 113.24,227.32 91.02,241.83 " fill="none" id="InstinctBehaviour-HerdCattle" style="stroke: #A80036; stroke-width: 1.0; stroke-dasharray: 7.0,7.0;"/><polygon fill="none" points="163.34,186.28,183.91,181.22,170.99,198.01,163.34,186.28" style="stroke: #A80036; stroke-width: 1.0;"/><!--link InstinctBehaviour to Hunt--><path d="M200.83,199.62 C194.4,213.96 187.43,229.5 181.89,241.83 " fill="none" id="InstinctBehaviour-Hunt" style="stroke: #A80036; stroke-width: 1.0; stroke-dasharray: 7.0,7.0;"/><polygon fill="none" points="194.51,196.6,209.08,181.22,207.29,202.33,194.51,196.6" style="stroke: #A80036; stroke-width: 1.0;"/><!--link Dog to Lab--><path d="M593.46,72.2 C608.76,92.23 626.86,115.9 639.9,132.97 " fill="none" id="Dog-Lab" style="stroke: #A80036; stroke-width: 1.0;"/><polygon fill="none" points="587.76,76.28,581.18,56.14,598.89,67.78,587.76,76.28" style="stroke: #A80036; stroke-width: 1.0;"/><!--link BarkBehaviour to LoudBark--><path d="M450.23,200.59 C455.09,214.66 460.32,229.78 464.49,241.83 " fill="none" id="BarkBehaviour-LoudBark" style="stroke: #A80036; stroke-width: 1.0; stroke-dasharray: 7.0,7.0;"/><polygon fill="none" points="443.45,202.41,443.53,181.22,456.68,197.83,443.45,202.41" style="stroke: #A80036; stroke-width: 1.0;"/><!--link BarkBehaviour to NoBark--><path d="M486.01,192.64 C509.49,208.75 536.78,227.47 557.72,241.83 " fill="none" id="BarkBehaviour-NoBark" style="stroke: #A80036; stroke-width: 1.0; stroke-dasharray: 7.0,7.0;"/><polygon fill="none" points="481.88,198.3,469.35,181.22,489.8,186.76,481.88,198.3" style="stroke: #A80036; stroke-width: 1.0;"/><!--link InstinctBehaviour to Wag--><path d="M238.17,199.62 C244.6,213.96 251.57,229.5 257.11,241.83 " fill="none" id="InstinctBehaviour-Wag" style="stroke: #A80036; stroke-width: 1.0; stroke-dasharray: 7.0,7.0;"/><polygon fill="none" points="231.71,202.33,229.92,181.22,244.49,196.6,231.71,202.33" style="stroke: #A80036; stroke-width: 1.0;"/><!--link Dog to Wolf--><path d="M608.79,63.11 C643.26,86.03 689.68,116.89 719.36,136.62 " fill="none" id="Dog-Wolf" style="stroke: #A80036; stroke-width: 1.0;"/><polygon fill="none" points="604.78,68.85,592,51.95,612.53,57.19,604.78,68.85" style="stroke: #A80036; stroke-width: 1.0;"/><!--
@startuml

    interface BarkBehaviour {
    }

    class Bork {
    }

    class Corgi {
    }

    abstract class Dog {
    }

    class HerdCattle {
    }

    class Hunt {
    }

    interface InstinctBehaviour {
    }

    class Lab {
    }

    class LoudBark {
    }

    class Main {
    }

    class NoBark {
    }

    class Wag {
    }

    class Wolf {
    }


  Bork .up.|> BarkBehaviour
  Corgi -up-|> Dog
  Dog o- - BarkBehaviour : barkBehaviour
  Dog o- - InstinctBehaviour : instinctBehaviour
  HerdCattle .up.|> InstinctBehaviour
  Hunt .up.|> InstinctBehaviour
  Lab -up-|> Dog
  LoudBark .up.|> BarkBehaviour
  NoBark .up.|> BarkBehaviour
  Wag .up.|> InstinctBehaviour
  Wolf -up-|> Dog

@enduml

PlantUML version 1.2018.13(Mon Nov 26 17:11:51 GMT 2018)
(GPL source distribution)
Java Runtime: OpenJDK Runtime Environment
JVM: OpenJDK 64-Bit Server VM
Java Version: 11.0.8+10-post-Ubuntu-0ubuntu120.04
Operating System: Linux
OS Version: 5.4.0-51-generic
Default Encoding: UTF-8
Language: en
Country: IE
--></g></svg>